<svg id="Layer_1" data-name="Layer 1" xmlns="http://www.w3.org/2000/svg" viewBox="0 0 510.5 188"><defs><style>.cls-1{fill:#f2f2f2;}</style></defs><title>filmy-logo-2</title><path class="cls-1" d="M555.25,44.21V6H59.75a15,15,0,0,0-15,15V148.15H83V115.28h56.55V77.07H83V44.21Z" transform="translate(-44.75 -6)"/><polygon class="cls-1" points="190.29 104.7 190.29 45.09 152.08 45.09 152.08 142.91 190.29 142.91 246.85 142.91 246.85 104.7 190.29 104.7"/><rect class="cls-1" x="104.32" y="45.09" width="38.21" height="97.82"/><path class="cls-1" d="M517,51.09V110.7H481.89V51.09H443.67v79.63a18.19,18.19,0,0,0,18.2,18.19H517v6.88H44.75V194h495.5a15,15,0,0,0,15-15V51.09Z" transform="translate(-44.75 -6)"/><polygon class="cls-1" points="352.02 45.09 351.56 45.09 323.22 73.43 294.42 45.09 256.4 45.09 256.4 142.91 294.61 142.91 294.61 98.86 322.75 127 323.22 126.53 323.69 127 351.16 99.52 351.16 142.91 389.37 142.91 389.37 45.09 352.02 45.09"/></svg>